<?xml version="1.0" encoding="UTF-8"?>
<svg id="Layer_1" xmlns="http://www.w3.org/2000/svg" viewBox="0 0 841.89 595.28">
  <defs>
    <style>
      .cls-1 {
        fill: #fff;
      }
    </style>
  </defs>
  <g>
    <path class="cls-1" d="M377.9,305.16v41.91h-17.06v-96.03h17.06v39.09h40.97v-39.09h17.06v96.03h-17.06v-41.91h-40.97Z"/>
    <path class="cls-1" d="M457.95,371.24l11.01-26.06c-8.06-21.36-17.86-46.47-26.59-68.63h18c7.79,22.43,12.22,36.53,17.19,50.37,4.3-11.69,11.42-33.71,17.19-50.37h17.59c-12.36,31.16-24.58,62.46-37.74,94.69h-16.65Z"/>
    <path class="cls-1" d="M567.28,347.07v-9.94c-4.03,6.18-12.22,11.55-24.31,11.55-19.21,0-32.5-15.04-32.5-37.07s12.76-37.34,32.91-37.34c11.15,0,19.21,5.51,23.1,11.28-.13-4.97-.13-9.13-.13-13.97v-20.55h16.39v96.03h-15.45ZM527.25,311.88c0,13.43,7.25,23.5,19.48,23.5s20.41-10.21,20.41-24.04-8.46-23.5-20.28-23.5-19.61,10.61-19.61,24.04Z"/>
    <path class="cls-1" d="M608.65,276.42v4.84c0,1.61,0,3.22-.13,4.7,2.42-7.12,9-11.15,17.06-11.15,1.75,0,2.95.13,3.89.27v15.58c-1.21-.4-3.09-.54-4.7-.54-12.76,0-15.04,9.13-15.04,23.64v33.31h-16.39v-57.89c0-4.43,0-8.46-.13-12.76h15.45Z"/>
    <path class="cls-1" d="M704.41,311.88c0,21.76-14.37,37.34-37.2,37.34s-36.53-15.71-36.53-37.34,14.64-37.74,36.8-37.74,36.94,15.58,36.94,37.74ZM647.46,311.74c0,14.37,7.39,23.77,19.74,23.77s19.88-9.4,19.88-23.77-7.52-23.91-19.88-23.91-19.74,9.94-19.74,23.91Z"/>
  </g>
  <path class="cls-1" d="M227.59,207.53h-85.5c-2.55,0-4.61,2.06-4.61,4.61s2.06,4.61,4.61,4.61c44.6,0,80.89,36.29,80.89,80.89s-36.29,80.89-80.89,80.89c-2.55,0-4.61,2.06-4.61,4.61s2.06,4.61,4.61,4.61h85.5c49.68,0,90.1-40.42,90.1-90.1s-40.42-90.1-90.1-90.1ZM212.42,377.41c28.67-15.1,48.27-45.18,48.27-79.77s-19.6-64.67-48.27-79.77c38.28,6.38,67.55,39.71,67.55,79.77s-29.28,73.39-67.55,79.77ZM232.19,297.64c0-34.58-19.58-64.66-48.23-79.76,38.26,6.39,67.51,39.72,67.51,79.76s-29.26,73.37-67.51,79.76c28.65-15.1,48.23-45.18,48.23-79.76ZM240.92,377.41c28.67-15.1,48.27-45.18,48.27-79.77s-19.6-64.67-48.27-79.77c38.28,6.38,67.55,39.71,67.55,79.77s-29.28,73.39-67.55,79.77Z"/>
</svg>