<?xml version="1.0" encoding="UTF-8"?>
<svg id="Layer_2" data-name="Layer 2" xmlns="http://www.w3.org/2000/svg" viewBox="0 0 178.42 178.42">
  <g id="Layer_1-2" data-name="Layer 1">
    <path d="M89.21,0H4.56C2.04,0,0,2.04,0,4.56s2.04,4.56,4.56,4.56c44.16,0,80.08,35.93,80.08,80.08S48.72,169.29,4.56,169.29c-2.52,0-4.56,2.04-4.56,4.56s2.04,4.56,4.56,4.56h84.65c49.19,0,89.21-40.02,89.21-89.21S138.4,0,89.21,0ZM74.2,168.19c28.38-14.95,47.79-44.73,47.79-78.98S102.58,25.18,74.2,10.23c37.9,6.31,66.88,39.32,66.88,78.98s-28.99,72.66-66.88,78.98ZM93.77,89.21c0-34.23-19.39-64.02-47.75-78.97,37.88,6.33,66.84,39.32,66.84,78.97s-28.97,72.64-66.84,78.97c28.37-14.95,47.75-44.74,47.75-78.97ZM102.41,168.19c28.38-14.95,47.79-44.73,47.79-78.98S130.8,25.18,102.41,10.23c37.9,6.31,66.88,39.32,66.88,78.98s-28.99,72.66-66.88,78.98Z"/>
  </g>
</svg>